<?xml version="1.0" standalone="no"?>
<!DOCTYPE svg PUBLIC "-//W3C//DTD SVG 20010904//EN"
 "http://www.w3.org/TR/2001/REC-SVG-20010904/DTD/svg10.dtd">
<svg version="1.0" xmlns="http://www.w3.org/2000/svg"
 width="500.000000pt" height="500.000000pt" viewBox="0 0 500.000000 500.000000"
 preserveAspectRatio="xMidYMid meet">

<g transform="translate(0.000000,500.000000) scale(0.100000,-0.100000)"
fill="#000000" stroke="none">
<path d="M1893 4912 c-45 -32 -103 -76 -130 -100 -32 -29 -24 -24 27 15 41 32
100 73 130 92 67 43 64 40 59 45 -2 2 -41 -21 -86 -52z"/>
<path d="M3041 4943 c0 -21 2 -24 7 -10 7 15 13 13 60 -18 28 -20 52 -33 52
-31 0 3 -27 24 -60 46 l-60 41 1 -28z"/>
<path d="M1966 4850 c3 -47 7 -87 10 -89 7 -7 3 70 -6 124 -7 39 -8 32 -4 -35z"/>
<path d="M3043 4830 c0 -36 2 -50 4 -32 2 17 2 47 0 65 -2 17 -4 3 -4 -33z"/>
<path d="M3170 4876 c0 -2 8 -10 18 -17 15 -13 16 -12 3 4 -13 16 -21 21 -21
13z"/>
<path d="M3240 4846 c0 -2 8 -10 18 -17 15 -13 16 -12 3 4 -13 16 -21 21 -21
13z"/>
<path d="M1805 4753 c-82 -70 -164 -168 -203 -242 -24 -46 -77 -194 -122 -343
-16 -52 -1 -28 59 97 33 69 62 125 65 125 4 0 -11 -35 -32 -77 -22 -43 -51
-109 -66 -148 -56 -144 -79 -192 -132 -272 -31 -46 -57 -83 -59 -83 -19 0
-326 69 -465 104 -96 25 -177 42 -180 39 -3 -3 0 -8 6 -10 28 -10 126 -90 202
-165 197 -196 292 -405 292 -648 0 -59 -3 -122 -6 -139 -6 -30 -8 -31 -63 -31
-53 0 -58 -2 -76 -32 -18 -30 -20 -58 -23 -348 -4 -271 -2 -332 14 -430 10
-63 19 -138 19 -166 0 -47 -4 -57 -43 -103 -26 -31 -36 -48 -25 -44 17 6 17 5
-1 -15 -10 -12 -23 -19 -29 -15 -5 3 -7 0 -5 -8 3 -8 -1 -21 -9 -30 -12 -14
-12 -17 2 -23 11 -4 14 -2 9 6 -5 8 -2 9 10 5 9 -4 14 -3 11 2 -3 5 0 13 6 17
8 4 9 3 5 -4 -4 -7 -2 -12 4 -12 6 0 8 -5 4 -12 -4 -7 -3 -8 5 -4 6 4 9 12 6
17 -4 5 -1 9 4 9 6 0 11 -5 11 -12 0 -6 6 -3 14 7 13 18 13 18 24 -1 6 -10 12
-14 12 -8 0 7 7 15 16 18 14 5 15 4 5 -8 -9 -11 -9 -16 0 -22 7 -4 9 -3 6 3
-4 6 0 13 8 17 8 3 17 1 20 -4 7 -11 29 -7 51 10 10 8 15 10 11 4 -9 -16 16
-25 34 -12 11 8 10 8 -5 4 -15 -5 -17 -4 -8 7 8 10 8 24 1 51 -15 53 -5 56 10
4 10 -34 62 -172 88 -234 2 -7 -16 -23 -41 -37 l-44 -25 25 59 c14 33 24 62
21 64 -4 4 -131 -5 -260 -19 -36 -4 -38 -3 -38 25 0 16 -3 29 -7 29 -4 0 -50
-22 -102 -49 -88 -44 -108 -50 -240 -70 -80 -12 -147 -23 -149 -26 -2 -2 30
-48 70 -102 l75 -98 10 -90 11 -90 -43 -115 c-24 -63 -43 -115 -42 -117 2 -1
29 2 62 7 33 4 63 5 66 1 3 -3 12 -51 18 -107 7 -55 16 -105 19 -110 7 -11
250 -104 270 -104 7 0 64 32 127 71 l116 71 -7 34 -6 33 60 -26 61 -26 7 -91
c5 -50 7 -94 6 -99 -7 -24 26 7 121 117 l107 124 121 7 121 7 121 -119 c164
-160 317 -286 504 -414 l84 -57 94 64 c200 137 475 369 591 499 l54 60 71 -39
c58 -31 75 -36 93 -28 11 5 55 26 96 45 l76 35 98 -58 98 -57 38 21 c36 19 39
20 57 4 16 -15 25 -16 58 -7 33 9 49 8 102 -11 35 -12 70 -19 79 -16 10 4 30
-4 50 -19 l34 -26 131 50 c73 28 133 52 135 54 9 9 83 602 76 608 -17 17 -162
70 -173 64 -6 -4 -25 7 -43 24 l-32 31 -87 -32 -87 -31 -52 33 c-47 29 -58 31
-102 25 -44 -5 -52 -3 -76 20 l-27 26 -80 -34 -80 -34 30 66 c16 36 47 113 68
171 38 106 51 125 24 36 l-15 -48 26 17 c15 9 24 12 20 7 -4 -6 2 -10 12 -9
40 3 106 192 138 395 14 91 16 156 11 426 -5 294 -7 321 -25 345 -14 20 -30
27 -62 29 -25 2 -46 -2 -50 -8 -17 -28 -33 95 -28 215 5 104 11 136 40 223 45
130 120 251 227 363 73 78 169 160 220 188 38 22 -2 18 -104 -10 -103 -27
-417 -99 -495 -113 -35 -6 -36 -5 -87 71 -61 93 -81 132 -126 249 -49 128 -51
133 -35 106 8 -12 18 -19 23 -15 4 4 5 3 1 -4 -3 -7 0 -27 8 -45 l14 -33 -4
43 c-2 24 -10 56 -18 70 -8 15 -27 63 -41 107 -53 156 -94 223 -211 337 -91
89 -120 112 -137 105 -7 -3 -18 -44 -26 -93 -13 -90 -50 -243 -77 -322 -18
-53 -17 -64 1 -32 17 30 20 21 4 -14 -7 -14 -16 -23 -20 -20 -5 3 -6 -3 -2
-12 5 -13 3 -15 -7 -9 -8 5 -11 4 -6 -3 3 -6 -10 -38 -30 -71 -20 -33 -47 -86
-59 -118 l-24 -57 -88 -13 c-99 -15 -202 -45 -250 -74 l-32 -20 -58 29 c-66
33 -160 59 -250 68 l-60 7 -22 52 c-12 29 -44 91 -71 138 -31 53 -47 93 -44
104 4 14 3 15 -4 5 -7 -11 -12 -6 -21 19 -15 43 -13 49 5 19 11 -18 13 -19 9
-5 -26 80 -54 191 -64 250 -7 39 -15 77 -18 85 -4 8 -5 21 -4 29 4 25 -9 61
-23 61 -8 0 -44 -26 -81 -57z m79 -634 c25 -47 55 -111 65 -142 l20 -56 -48
-34 c-89 -64 -157 -167 -210 -320 -36 -103 -45 -158 -25 -150 8 3 14 11 14 17
0 24 181 301 228 349 87 90 151 109 278 81 46 -10 84 -21 84 -25 0 -4 -35 -18
-77 -32 l-78 -25 58 -7 c44 -6 84 -2 163 14 121 24 208 27 284 7 85 -21 140
-26 200 -17 57 8 55 10 -19 31 -102 28 -103 30 -26 50 122 33 190 21 272 -46
43 -35 137 -167 222 -311 24 -40 47 -71 51 -68 10 6 -10 79 -52 187 -35 93
-116 209 -178 256 -25 19 -46 41 -48 48 -5 21 29 106 87 219 35 68 56 123 64
170 l12 70 78 -236 c133 -408 154 -529 159 -914 4 -296 -3 -329 -80 -422 -96
-115 -138 -202 -110 -229 11 -12 15 -10 27 9 13 21 13 21 -5 8 -10 -8 -2 2 20
20 21 19 44 48 52 64 13 29 13 28 7 -20 -12 -101 -41 -175 -118 -308 l-79
-134 -63 106 c-57 94 -93 145 -82 116 2 -5 28 -71 58 -145 l55 -135 4 -129 c4
-137 -6 -199 -36 -215 -9 -5 -39 -12 -66 -16 -50 -8 -116 -53 -116 -81 0 -11
6 -10 35 2 48 20 44 5 -9 -29 -76 -48 -97 -41 -206 68 l-95 95 -144 0 -145 0
-97 -95 c-110 -109 -130 -115 -205 -68 -52 33 -57 49 -10 29 39 -16 50 -12 36
14 -16 29 -71 57 -128 65 -81 11 -87 26 -87 205 l0 145 58 144 c32 78 57 145
55 147 -3 2 -35 -48 -73 -111 l-68 -115 -17 28 c-120 196 -152 264 -171 358
-19 94 -19 132 0 81 15 -39 76 -114 89 -109 35 11 -11 120 -92 215 -90 107
-99 145 -97 422 2 370 26 511 149 890 l87 271 21 -86 c13 -50 41 -121 68 -171z
m1574 196 c-3 -3 -9 2 -12 12 -6 14 -5 15 5 6 7 -7 10 -15 7 -18z m20 -40 c-3
-3 -9 2 -12 12 -6 14 -5 15 5 6 7 -7 10 -15 7 -18z m-2321 -2307 c-3 -8 -6 -5
-6 6 -1 11 2 17 5 13 3 -3 4 -12 1 -19z m2710 -10 c-3 -8 -6 -5 -6 6 -1 11 2
17 5 13 3 -3 4 -12 1 -19z m-2700 -30 c-3 -8 -6 -5 -6 6 -1 11 2 17 5 13 3 -3
4 -12 1 -19z m2690 -10 c-3 -8 -6 -5 -6 6 -1 11 2 17 5 13 3 -3 4 -12 1 -19z
m-2680 -30 c-3 -8 -6 -5 -6 6 -1 11 2 17 5 13 3 -3 4 -12 1 -19z m2670 -10
c-3 -8 -6 -5 -6 6 -1 11 2 17 5 13 3 -3 4 -12 1 -19z m-1285 -71 c37 -9 53
-21 77 -54 34 -48 36 -53 19 -53 -7 0 -26 -13 -43 -28 -16 -16 -46 -38 -65
-50 l-35 -21 -36 22 c-61 38 -117 90 -108 101 5 6 20 25 34 43 21 26 57 44
105 52 3 0 26 -5 52 -12z m-1428 -35 c3 -5 -1 -9 -9 -9 -8 0 -12 4 -9 9 3 4 7
8 9 8 2 0 6 -4 9 -8z m-208 -619 c38 -314 40 -323 61 -323 30 0 32 6 22 75
-18 129 -70 607 -67 611 5 4 152 22 156 19 1 -1 -7 -23 -18 -49 l-20 -47 30
-272 c17 -150 30 -283 30 -297 0 -19 -16 -37 -70 -78 l-69 -53 -98 39 -98 39
-12 99 c-6 54 -12 109 -12 121 -1 19 -5 21 -36 16 -19 -3 -35 -3 -35 -1 0 3
11 30 24 59 25 54 25 54 11 166 -11 90 -19 120 -41 152 -15 23 -31 41 -35 41
-5 0 -9 4 -9 9 0 5 45 14 100 21 54 7 107 18 117 25 23 17 21 30 69 -372z
m1214 365 c0 -8 14 -13 33 -14 17 0 47 -7 66 -15 27 -11 35 -11 38 -1 3 6 11
12 19 12 11 0 14 -17 14 -75 0 -85 -2 -86 -70 -51 -38 19 -46 28 -48 55 -3 28
-7 32 -29 29 -24 -3 -25 -5 -26 -88 l-2 -85 85 3 85 4 -20 -24 c-39 -46 -79
-88 -85 -88 -7 0 -40 66 -40 78 0 4 10 -4 21 -18 11 -14 18 -20 15 -14 -3 7 3
14 14 17 13 3 18 1 13 -6 -3 -7 4 -3 16 8 l23 20 -37 3 c-61 5 -88 -5 -82 -31
3 -12 7 -65 8 -118 l3 -95 27 4 c19 3 29 11 31 26 2 13 21 30 53 48 l50 27 7
-52 c3 -29 6 -74 7 -102 l0 -50 -33 38 -33 37 -52 -26 -52 -25 -89 37 -90 37
0 46 c0 25 -3 63 -7 84 -5 31 -9 38 -24 34 -11 -3 -19 -4 -19 -4 0 1 9 25 19
52 15 39 18 66 14 121 l-6 72 84 50 c92 55 99 58 99 40z m830 -8 c0 -5 11 -10
25 -10 14 0 51 -14 82 -32 l56 -32 -7 -125 c-3 -69 -6 -162 -6 -206 l0 -80
-52 -31 c-53 -31 -54 -31 -165 -26 l-113 5 0 108 c0 107 -2 115 -32 110 -12
-2 -9 14 12 64 25 58 26 151 3 200 -9 19 -20 35 -25 35 -4 0 -8 3 -8 8 0 4 37
6 82 4 46 -2 94 1 108 7 33 13 40 13 40 1z m-1277 -28 c-22 -17 -21 -17 35
-18 31 -1 42 1 25 3 -18 2 -33 8 -33 14 0 17 48 9 114 -21 l66 -29 0 -83 c0
-46 3 -139 6 -208 l7 -125 -54 -34 c-49 -30 -61 -33 -124 -32 -38 0 -86 -3
-106 -8 l-37 -8 -6 45 c-3 25 -6 62 -6 82 0 69 -11 102 -31 97 -24 -6 -24 7 2
62 29 65 18 147 -27 207 l-34 44 73 0 c50 0 83 6 107 18 41 21 54 18 23 -6z
m1778 -23 l79 -51 -5 -62 c-9 -110 -25 -317 -25 -331 0 -15 -69 -54 -132 -74
-34 -11 -42 -9 -118 29 l-81 41 2 82 c2 77 1 82 -19 85 -12 2 -22 4 -22 5 0 1
11 24 25 51 20 39 25 64 25 122 0 47 4 76 12 81 10 6 164 70 176 72 2 1 39
-22 83 -50z m-801 16 l50 -25 0 -75 c0 -65 -3 -76 -22 -90 -23 -16 -23 -16 -3
-33 19 -16 20 -26 15 -152 l-5 -136 -44 -51 c-25 -29 -49 -49 -53 -47 -5 3 -8
76 -8 162 1 138 -1 163 -19 205 -11 26 -24 47 -28 47 -4 0 -7 -72 -5 -160 2
-88 0 -160 -5 -160 -4 0 -42 13 -83 28 l-75 28 -3 79 c-3 78 -13 100 -39 90
-19 -6 -16 4 12 54 33 57 36 178 5 229 l-20 32 140 0 c130 0 144 -2 190 -25z
m1205 -25 c55 -38 68 -38 99 3 l26 32 -5 -30 c-2 -16 -7 -61 -10 -98 -6 -64
-8 -67 -28 -61 -12 4 -36 16 -55 28 -26 17 -32 26 -29 48 3 23 -1 28 -26 34
-15 3 -30 4 -32 2 -2 -1 -6 -40 -10 -85 -9 -94 -16 -86 99 -98 33 -3 61 -7 61
-8 4 -5 -28 -322 -32 -327 -2 -3 -12 6 -22 19 l-18 23 -58 -17 -58 -16 -51 27
c-28 14 -66 36 -84 48 l-32 21 6 84 c7 83 7 84 -14 78 -27 -7 -27 -7 3 53 14
27 25 66 26 87 0 21 3 56 7 77 7 39 9 41 87 72 44 18 86 33 93 34 7 0 33 -13
57 -30z m-2725 -11 c0 -34 30 -34 94 0 l61 32 85 -31 c46 -17 87 -33 89 -36 3
-3 13 -109 23 -237 l17 -232 -33 -35 c-18 -19 -42 -48 -54 -63 l-20 -28 -7 53
c-3 29 -13 163 -23 298 l-17 245 -30 0 c-24 0 -30 -4 -28 -20 50 -513 49 -490
26 -480 -10 4 -47 16 -82 26 -35 10 -65 20 -67 22 -2 2 -7 41 -11 88 -8 79 -9
84 -31 83 -24 -1 -24 -2 2 75 11 31 9 85 -8 229 -4 27 -2 41 4 37 6 -3 10 -15
10 -26z m3216 -69 c4 0 24 15 43 33 20 19 32 25 28 15 -3 -10 -9 -51 -13 -93
-4 -42 -11 -78 -15 -81 -5 -3 -32 7 -59 22 -44 24 -50 31 -50 60 0 24 -5 34
-21 39 -12 4 -25 3 -29 -2 -5 -4 -11 -53 -15 -107 -7 -95 -7 -99 11 -91 26 12
117 17 130 8 12 -9 -8 -250 -23 -264 -4 -4 -39 -17 -78 -27 -38 -11 -74 -21
-80 -23 -5 -1 -35 10 -67 26 l-56 28 -27 -29 -26 -29 6 65 c3 36 8 79 11 97
l6 32 51 -34 c29 -19 64 -35 79 -35 24 0 28 -4 28 -30 0 -25 4 -30 25 -30 26
0 28 5 40 121 l6 56 -32 7 c-17 3 -57 6 -88 6 -31 0 -73 5 -94 11 -32 8 -36
13 -26 25 14 17 159 20 176 3 7 -7 9 -4 6 13 -4 22 -8 23 -83 21 -44 0 -85 -5
-92 -9 -10 -6 -10 -5 -1 7 6 8 16 54 22 103 6 49 12 91 14 93 2 2 46 16 98 31
l94 28 46 -33 c26 -18 50 -33 55 -33z"/>
<path d="M3231 4293 c-1 -6 -4 -19 -8 -29 -4 -12 -3 -15 5 -10 7 4 12 2 12 -5
0 -7 2 -10 5 -8 2 3 0 18 -4 35 -5 16 -10 24 -10 17z"/>
<path d="M1780 4271 c0 -6 5 -13 10 -16 6 -3 10 1 10 9 0 9 -4 16 -10 16 -5 0
-10 -4 -10 -9z"/>
<path d="M3210 3986 c0 -14 5 -28 10 -31 6 -3 10 5 10 19 0 14 -4 28 -10 31
-6 3 -10 -5 -10 -19z"/>
<path d="M1799 3998 c0 -2 -2 -13 -3 -25 -2 -17 0 -20 10 -12 7 6 10 17 7 25
-5 12 -12 18 -14 12z"/>
<path d="M2255 3606 c-47 -15 -109 -46 -103 -51 2 -3 22 0 44 6 45 13 226 7
265 -9 22 -9 25 -15 21 -41 -4 -30 -6 -31 -56 -31 -57 0 -146 -26 -146 -42 0
-11 136 -6 175 7 16 5 20 1 21 -17 1 -29 24 -195 32 -228 6 -29 5 -33 28 128
15 102 21 121 34 116 27 -11 160 -17 160 -7 0 17 -53 35 -117 40 -55 5 -62 8
-68 30 -3 13 -3 28 0 33 17 27 231 38 315 15 24 -6 25 -6 5 10 -11 9 -51 25
-88 37 -82 25 -153 21 -219 -10 l-45 -22 -54 25 c-61 28 -137 32 -204 11z"/>
<path d="M1853 3172 c4 -5 24 -12 45 -16 42 -6 68 -23 162 -103 51 -44 67 -53
100 -53 48 0 113 50 108 83 -5 32 -26 31 -55 -2 -40 -45 -72 -41 -141 15 -31
26 -70 52 -87 59 -41 17 -139 30 -132 17z"/>
<path d="M3135 3175 c-5 -2 -27 -6 -47 -10 -23 -3 -63 -25 -103 -56 -96 -74
-107 -76 -155 -33 -21 20 -44 33 -50 29 -19 -12 -10 -47 21 -76 24 -22 41 -29
73 -29 37 0 51 7 110 58 76 65 140 102 173 102 13 0 23 5 23 10 0 10 -24 12
-45 5z"/>
<path d="M2324 3138 c-12 -23 -15 -48 -11 -94 5 -63 5 -63 -26 -73 -73 -26
-184 -1 -258 59 -111 89 -201 104 -285 48 -61 -42 -72 -68 -18 -40 22 11 55
22 75 26 36 6 37 6 44 -31 3 -21 15 -53 25 -70 22 -38 17 -40 -28 -13 -40 24
-40 24 -38 3 1 -14 -8 -19 -41 -21 -24 -2 -43 -8 -43 -13 0 -6 -5 -7 -12 -3
-13 8 -6 -6 27 -51 38 -54 93 -179 106 -241 12 -58 11 -64 -10 -99 -24 -42
-22 -79 5 -89 12 -5 31 9 66 49 46 50 53 55 92 55 83 0 114 -65 87 -182 -7
-29 -5 -41 8 -55 15 -16 33 -18 178 -15 l160 3 12 26 c6 14 14 23 17 20 3 -3
-1 -15 -8 -27 -12 -19 -10 -24 15 -44 30 -24 36 -70 17 -134 -7 -26 -4 -49 14
-105 l22 -72 24 70 c20 60 22 75 12 112 -20 73 -16 112 13 125 28 13 31 31 10
68 -8 14 -14 32 -15 40 0 8 10 -6 23 -30 l22 -45 162 -5 c157 -5 163 -4 174
16 8 15 8 32 0 60 -19 68 -14 110 17 143 26 29 42 35 88 32 22 -1 58 -31 101
-84 28 -34 40 -34 55 -2 9 21 8 33 -10 69 -19 38 -21 50 -12 97 11 57 71 192
114 256 29 43 26 50 -26 54 -29 3 -42 -2 -64 -25 -16 -15 -36 -32 -46 -37 -10
-5 5 13 33 41 28 28 49 54 45 57 -3 3 -11 1 -19 -5 -7 -6 -25 -16 -41 -22
l-28 -10 21 34 c12 18 21 50 21 70 l0 37 38 -7 c20 -4 53 -14 72 -22 19 -9 40
-18 45 -20 21 -10 -51 61 -77 74 -35 18 -109 18 -155 -1 -20 -9 -61 -34 -89
-56 -89 -69 -204 -97 -277 -70 -24 9 -25 13 -20 69 4 44 1 68 -12 95 -9 21
-21 37 -25 37 -4 0 -24 -18 -44 -40 -58 -65 -45 -134 35 -179 39 -22 41 -25
24 -38 -25 -17 -96 -17 -121 2 -10 8 -39 14 -64 14 -25 0 -54 -6 -64 -14 -25
-19 -96 -19 -121 -1 -18 13 -16 15 22 39 84 53 96 111 37 177 -20 22 -40 40
-45 40 -5 0 -16 -14 -25 -32z m-347 -164 c21 -14 50 -28 66 -31 32 -6 33 -10
10 -35 -39 -43 -123 -1 -123 62 0 16 2 30 5 30 2 0 21 -12 42 -26z m1092 -60
c-26 -28 -65 -31 -97 -8 -28 20 -28 34 1 34 13 0 43 13 67 28 l45 28 3 -29 c2
-20 -4 -37 -19 -53z m-1218 -11 l34 -37 -34 25 c-19 14 -37 31 -39 37 -6 20 2
14 39 -25z m629 3 c0 -2 -8 -10 -17 -17 -16 -13 -17 -12 -4 4 13 16 21 21 21
13z m140 -43 c0 -7 -39 17 -46 28 -3 6 5 3 20 -6 14 -10 26 -19 26 -22z m-330
12 c33 -19 21 -19 -21 0 -19 8 -27 14 -19 14 8 0 26 -6 40 -14z m481 0 c-18
-8 -36 -15 -40 -15 -13 1 45 29 59 29 8 0 0 -6 -19 -14z m-336 -5 c-3 -5 -12
-10 -18 -10 -7 0 -6 4 3 10 19 12 23 12 15 0z m42 -26 c-3 -3 -12 -4 -19 -1
-8 3 -5 6 6 6 11 1 17 -2 13 -5z m80 0 c-3 -3 -12 -4 -19 -1 -8 3 -5 6 6 6 11
1 17 -2 13 -5z m-470 -10 c-3 -3 -12 -4 -19 -1 -8 3 -5 6 6 6 11 1 17 -2 13
-5z m570 -234 c79 -34 86 -52 11 -28 -87 28 -221 28 -305 1 -65 -22 -75 -15
-20 14 95 49 220 55 314 13z m-392 -230 c10 -11 16 -20 13 -20 -3 0 -13 9 -23
20 -10 11 -16 20 -13 20 3 0 13 -9 23 -20z m500 -10 c-11 -17 -65 -41 -97 -42
-19 -1 -37 7 -51 23 l-22 23 22 -18 c29 -24 75 -23 116 3 38 23 40 24 32 11z
m-450 -28 c-3 -3 -11 0 -18 7 -9 10 -8 11 6 5 10 -3 15 -9 12 -12z m111 9
c-10 -16 -60 -28 -81 -21 -16 6 -14 8 11 8 17 -1 39 4 50 10 24 14 27 14 20 3z"/>
<path d="M2344 2929 c-10 -18 70 -26 95 -10 9 6 -4 10 -39 12 -28 2 -54 1 -56
-2z"/>
<path d="M2625 2930 c-35 -3 -45 -7 -32 -12 25 -10 79 -10 95 1 21 13 -4 17
-63 11z"/>
<path d="M1671 2624 c0 -11 3 -14 6 -6 3 7 2 16 -1 19 -3 4 -6 -2 -5 -13z"/>
<path d="M3341 2614 c0 -11 3 -14 6 -6 3 7 2 16 -1 19 -3 4 -6 -2 -5 -13z"/>
<path d="M1778 2587 c-3 -19 -2 -25 4 -19 6 6 8 18 6 28 -3 14 -5 12 -10 -9z"/>
<path d="M1681 2574 c0 -11 3 -14 6 -6 3 7 2 16 -1 19 -3 4 -6 -2 -5 -13z"/>
<path d="M2062 2267 c-9 -10 -9 -18 1 -31 17 -23 49 -11 45 18 -4 25 -30 32
-46 13z"/>
<path d="M2930 2264 c-11 -12 -10 -18 3 -32 16 -15 18 -15 33 0 19 18 12 48
-9 48 -8 0 -20 -7 -27 -16z"/>
<path d="M2082 2153 c5 -25 28 -28 28 -4 0 12 -6 21 -16 21 -9 0 -14 -7 -12
-17z"/>
<path d="M2227 2164 c-14 -15 -6 -43 14 -49 25 -8 42 6 37 31 -3 19 -38 31
-51 18z"/>
<path d="M2760 2155 c-10 -12 -10 -18 0 -30 7 -8 18 -15 25 -15 7 0 18 7 25
15 10 12 10 18 0 30 -7 8 -18 15 -25 15 -7 0 -18 -7 -25 -15z"/>
<path d="M2924 2159 c-10 -17 13 -36 27 -22 12 12 4 33 -11 33 -5 0 -12 -5
-16 -11z"/>
<path d="M1975 2090 c3 -5 10 -10 16 -10 5 0 9 5 9 10 0 6 -7 10 -16 10 -8 0
-12 -4 -9 -10z"/>
<path d="M3040 2090 c0 -5 5 -10 10 -10 6 0 10 5 10 10 0 6 -4 10 -10 10 -5 0
-10 -4 -10 -10z"/>
<path d="M2164 2069 c-8 -14 18 -31 30 -19 9 9 0 30 -14 30 -5 0 -12 -5 -16
-11z"/>
<path d="M2842 2064 c4 -21 22 -23 26 -1 2 10 -3 17 -13 17 -10 0 -15 -6 -13
-16z"/>
<path d="M2387 2063 c-11 -10 -8 -41 4 -49 6 -3 18 1 27 9 13 13 13 19 2 31
-14 17 -23 20 -33 9z"/>
<path d="M2622 2061 c-19 -11 -11 -45 11 -49 9 -2 20 4 23 13 9 21 -16 47 -34
36z"/>
<path d="M2220 1960 c0 -5 7 -10 15 -10 8 0 15 5 15 10 0 6 -7 10 -15 10 -8 0
-15 -4 -15 -10z"/>
<path d="M2790 1960 c0 -5 5 -10 10 -10 6 0 10 5 10 10 0 6 -4 10 -10 10 -5 0
-10 -4 -10 -10z"/>
<path d="M2344 1949 c-10 -17 13 -36 27 -22 12 12 4 33 -11 33 -5 0 -12 -5
-16 -11z"/>
<path d="M2664 1949 c-10 -17 13 -36 27 -22 12 12 4 33 -11 33 -5 0 -12 -5
-16 -11z"/>
<path d="M844 1501 c-5 -5 -22 -11 -39 -14 l-30 -4 30 -1 c30 -2 64 12 54 22
-3 3 -10 2 -15 -3z"/>
<path d="M973 1503 c-7 -2 -13 -12 -13 -21 0 -11 3 -13 8 -6 11 17 79 27 84
12 3 -8 7 -6 11 5 5 14 0 17 -36 16 -23 0 -48 -3 -54 -6z"/>
<path d="M713 1473 c9 -2 25 -2 35 0 9 3 1 5 -18 5 -19 0 -27 -2 -17 -5z"/>
<path d="M754 1170 c1 -25 3 -27 12 -15 8 10 29 15 68 15 49 0 58 -3 67 -22 9
-22 9 -22 4 2 -2 14 -5 31 -5 38 0 8 -21 12 -74 12 l-73 0 1 -30z"/>
<path d="M991 1188 c1 -7 5 -24 9 -38 8 -24 8 -24 9 -2 1 16 7 22 25 22 15 0
26 -7 29 -17 3 -10 5 -3 6 15 1 31 0 32 -39 32 -26 0 -40 -4 -39 -12z"/>
<path d="M2096 1491 c-4 -5 3 -7 14 -4 23 6 26 13 6 13 -8 0 -17 -4 -20 -9z"/>
<path d="M2153 1483 c9 -2 25 -2 35 0 9 3 1 5 -18 5 -19 0 -27 -2 -17 -5z"/>
<path d="M1976 1254 c-3 -9 -6 -16 -6 -17 0 -1 33 -1 74 1 65 3 75 1 79 -15 2
-10 4 -3 3 14 l-1 33 -71 0 c-56 0 -73 -3 -78 -16z"/>
<path d="M2930 1490 c-12 -7 -11 -9 5 -9 11 -1 38 -3 60 -5 39 -5 39 -5 5 3
-20 4 -40 10 -46 13 -5 4 -16 3 -24 -2z"/>
<path d="M2960 1370 l0 -80 -79 0 c-75 0 -91 -6 -91 -35 0 -1 16 1 35 5 30 7
37 5 47 -13 22 -41 63 -66 72 -44 2 7 5 -34 5 -91 l1 -103 28 3 27 3 5 111 c6
125 15 142 67 136 25 -3 33 0 33 11 0 12 -13 17 -47 19 l-48 3 3 78 4 77 -31
0 -31 0 0 -80z"/>
<path d="M1740 1424 c-12 -4 -15 -19 -12 -79 l4 -75 -69 0 c-66 0 -70 -1 -82
-27 -10 -21 -10 -24 1 -16 21 16 68 22 68 8 0 -16 31 -50 53 -58 12 -4 17 -1
18 11 2 33 17 -32 18 -78 1 -25 4 -61 7 -81 5 -32 9 -35 31 -31 l24 5 -7 103
c-4 69 -3 104 3 104 6 0 13 9 16 20 4 16 9 18 36 10 27 -7 31 -6 31 11 0 16
-7 19 -44 19 -52 0 -56 7 -56 96 0 65 -2 68 -40 58z"/>
<path d="M3360 1479 c-12 -8 -10 -9 7 -4 12 3 33 1 45 -5 22 -11 22 -10 4 4
-23 19 -35 20 -56 5z"/>
<path d="M3376 1413 c-4 -8 -6 -43 -6 -78 l0 -63 -84 -7 c-54 -5 -87 -12 -90
-20 -3 -10 5 -12 32 -9 33 4 39 1 57 -28 16 -25 28 -33 49 -33 l28 1 -7 -87
c-7 -84 -6 -87 15 -94 31 -10 36 3 44 107 4 58 12 96 21 105 8 8 15 19 15 24
0 14 58 11 63 -3 3 -7 6 -3 6 10 1 19 -4 22 -33 22 -61 0 -63 3 -58 84 4 72 4
73 -21 78 -17 3 -28 0 -31 -9z"/>
<path d="M2375 1467 c4 -9 30 -11 113 -5 112 7 139 4 185 -19 15 -7 27 -11 27
-8 0 2 -18 14 -40 25 -33 17 -59 20 -164 20 -97 0 -124 -3 -121 -13z"/>
<path d="M2552 1378 c3 -77 5 -83 26 -86 19 -3 22 1 23 30 0 18 3 57 5 86 l5
52 -31 0 -31 0 3 -82z"/>
<path d="M2445 1223 c-88 -4 -107 -12 -69 -30 13 -6 22 -7 18 -2 -3 5 23 9 60
9 53 0 65 -3 69 -17 3 -10 5 -3 6 15 0 17 0 31 -1 30 -2 -1 -39 -4 -83 -5z"/>
<path d="M2600 1218 c0 -13 23 -21 59 -21 56 0 49 21 -9 25 -27 1 -50 0 -50
-4z"/>
<path d="M3812 1461 c-10 -6 -7 -10 12 -13 21 -4 24 -3 15 8 -13 16 -11 16
-27 5z"/>
<path d="M3760 1440 c-8 -5 -10 -10 -5 -10 6 0 17 5 25 10 8 5 11 10 5 10 -5
0 -17 -5 -25 -10z"/>
<path d="M3784 1103 l-9 -128 27 -2 c26 -2 27 0 33 70 3 40 7 81 7 92 1 25
-28 95 -40 95 -5 0 -13 -57 -18 -127z"/>
<path d="M3623 1208 c-6 -7 -14 -20 -18 -28 -7 -12 -4 -12 11 1 15 13 36 16
92 14 56 -2 72 0 72 11 0 19 -143 20 -157 2z"/>
<path d="M3840 1203 c0 -5 26 -9 58 -10 39 -1 51 1 37 7 -25 11 -95 13 -95 3z"/>
<path d="M1274 1434 c-19 -15 -19 -15 1 -6 11 5 27 12 35 15 13 5 13 6 -1 6
-8 1 -24 -6 -35 -15z"/>
<path d="M1157 1178 c-4 -12 -4 -24 -2 -27 3 -2 5 1 5 7 0 8 23 12 69 12 58 0
70 -3 74 -17 3 -10 5 -3 6 15 l1 32 -74 0 c-68 0 -74 -2 -79 -22z"/>
<path d="M1401 1168 c1 -18 3 -25 6 -15 3 11 14 17 33 17 19 0 30 -6 33 -17 3
-10 5 -3 6 15 1 31 0 32 -39 32 -39 0 -40 -1 -39 -32z"/>
<path d="M4210 1400 c-30 -11 -41 -17 -25 -13 17 4 46 7 67 8 28 0 34 3 26 13
-6 6 -11 12 -12 11 0 0 -26 -9 -56 -19z"/>
<path d="M4280 1154 c38 -8 90 -9 90 -2 0 4 -24 7 -52 7 -29 -1 -46 -3 -38 -5z"/>
<path d="M3350 4745 c30 -30 57 -55 59 -55 3 0 -19 25 -49 55 -30 30 -57 55
-59 55 -3 0 19 -25 49 -55z"/>
<path d="M3032 4740 c0 -14 2 -19 5 -12 2 6 2 18 0 25 -3 6 -5 1 -5 -13z"/>
<path d="M1981 4724 c0 -11 3 -14 6 -6 3 7 2 16 -1 19 -3 4 -6 -2 -5 -13z"/>
<path d="M196 4191 c5 -5 56 -46 114 -92 138 -109 370 -343 444 -448 33 -46
77 -116 98 -155 20 -39 38 -67 38 -62 0 21 -89 173 -149 254 -36 48 -124 146
-196 217 -128 128 -324 295 -347 295 -8 0 -8 -3 -2 -9z"/>
<path d="M4810 4193 c-73 -27 -433 -372 -534 -510 -59 -82 -122 -183 -113
-183 3 0 23 30 45 68 88 147 303 375 496 527 144 114 141 111 106 98z"/>
<path d="M4136 3455 c-9 -26 -7 -32 5 -12 6 10 9 21 6 23 -2 3 -7 -2 -11 -11z"/>
<path d="M891 3415 c1 -19 18 -51 18 -35 0 8 -4 22 -9 30 -5 8 -9 11 -9 5z"/>
<path d="M4091 3314 c0 -11 3 -14 6 -6 3 7 2 16 -1 19 -3 4 -6 -2 -5 -13z"/>
<path d="M937 2830 c-4 -47 -6 -119 -5 -160 1 -53 3 -32 9 70 10 161 7 223 -4
90z"/>
<path d="M4073 2835 c0 -44 2 -61 4 -37 2 23 2 59 0 80 -2 20 -4 1 -4 -43z"/>
<path d="M4084 2665 c0 -49 1 -71 3 -48 2 23 2 64 0 90 -2 26 -3 8 -3 -42z"/>
<path d="M4081 1984 c0 -11 3 -14 6 -6 3 7 2 16 -1 19 -3 4 -6 -2 -5 -13z"/>
<path d="M864 1918 l-29 -33 33 29 c17 17 32 31 32 33 0 8 -8 1 -36 -29z"/>
<path d="M725 1768 l-40 -43 43 40 c39 36 47 45 39 45 -2 0 -21 -19 -42 -42z"/>
<path d="M4310 1685 c13 -14 26 -25 28 -25 3 0 -5 11 -18 25 -13 14 -26 25
-28 25 -3 0 5 -11 18 -25z"/>
<path d="M157 1648 c38 -50 258 -325 266 -333 6 -7 8 -5 5 4 -6 21 -251 329
-267 336 -10 4 -11 2 -4 -7z"/>
<path d="M4712 1490 c0 -19 2 -27 5 -17 2 9 2 25 0 35 -3 9 -5 1 -5 -18z"/>
<path d="M4702 1415 c0 -16 2 -22 5 -12 2 9 2 23 0 30 -3 6 -5 -1 -5 -18z"/>
<path d="M4692 1345 c0 -16 2 -22 5 -12 2 9 2 23 0 30 -3 6 -5 -1 -5 -18z"/>
<path d="M4682 1275 c0 -16 2 -22 5 -12 2 9 2 23 0 30 -3 6 -5 -1 -5 -18z"/>
<path d="M432 1265 c0 -16 2 -22 5 -12 2 9 2 23 0 30 -3 6 -5 -1 -5 -18z"/>
<path d="M4672 1205 c0 -16 2 -22 5 -12 2 9 2 23 0 30 -3 6 -5 -1 -5 -18z"/>
<path d="M4662 1135 c0 -16 2 -22 5 -12 2 9 2 23 0 30 -3 6 -5 -1 -5 -18z"/>
<path d="M4652 1065 c0 -16 2 -22 5 -12 2 9 2 23 0 30 -3 6 -5 -1 -5 -18z"/>
<path d="M4642 1000 c0 -19 2 -27 5 -17 2 9 2 25 0 35 -3 9 -5 1 -5 -18z"/>
<path d="M4632 930 c0 -19 2 -27 5 -17 2 9 2 25 0 35 -3 9 -5 1 -5 -18z"/>
<path d="M4622 860 c0 -19 2 -27 5 -17 2 9 2 25 0 35 -3 9 -5 1 -5 -18z"/>
<path d="M353 806 c-73 -10 -122 -26 -82 -26 27 0 254 31 258 36 8 7 -92 2
-176 -10z"/>
<path d="M4612 790 c0 -19 2 -27 5 -17 2 9 2 25 0 35 -3 9 -5 1 -5 -18z"/>
<path d="M532 770 c0 -14 2 -19 5 -12 2 6 2 18 0 25 -3 6 -5 1 -5 -13z"/>
<path d="M3399 722 c-127 -138 -337 -317 -545 -465 -135 -95 -328 -217 -345
-217 -18 0 -197 113 -338 213 -158 112 -308 235 -432 354 -53 51 -98 93 -101
93 -2 0 -87 -87 -187 -192 l-183 -193 184 185 185 186 94 -90 c129 -122 242
-217 388 -325 131 -96 371 -251 390 -251 28 0 352 217 501 335 137 109 311
267 382 347 44 50 67 68 80 65 10 -3 16 -1 12 4 -12 19 -34 7 -85 -49z"/>
<path d="M3500 755 c0 -3 36 -23 80 -45 44 -22 80 -38 80 -35 0 3 -36 23 -80
45 -44 22 -80 38 -80 35z"/>
<path d="M4601 734 c-1 -15 -19 -28 -83 -53 -46 -19 -141 -58 -212 -87 -71
-30 -135 -54 -142 -54 -7 0 -55 23 -106 51 l-93 51 -71 -24 -71 -25 -76 39
c-42 21 -77 36 -77 33 0 -3 35 -22 78 -44 l77 -39 67 25 67 25 103 -55 103
-55 219 89 c121 49 221 91 224 93 2 2 2 15 -1 28 -4 20 -4 20 -6 2z"/>
<path d="M542 690 c0 -14 2 -19 5 -12 2 6 2 18 0 25 -3 6 -5 1 -5 -13z"/>
<path d="M552 640 c3 -9 88 -49 207 -97 l203 -82 89 60 c49 33 89 62 89 65 0
2 -40 -23 -89 -56 l-90 -60 -68 29 c-37 15 -126 52 -198 81 -71 30 -134 58
-138 64 -6 7 -7 6 -5 -4z"/>
<path d="M1157 604 c-3 -5 1 -15 9 -22 16 -14 18 -5 5 17 -5 7 -11 9 -14 5z"/>
</g>
</svg>
